<svg width="1728" height="2278" viewBox="0 0 1728 2278" fill="none" xmlns="http://www.w3.org/2000/svg">
<path d="M52.9604 744.767C51.5124 745.294 49.9516 745.041 48.5993 745.058C46.616 745.397 44.6102 745.58 42.7226 745.409C41.7873 745.968 40.7618 745.904 39.8772 745.642C35.026 746.057 30.1297 746.16 25.4193 746.379C22.5514 746.455 19.8243 746.335 16.8775 748.21C16.2464 748.531 15.7788 748.811 15.1702 749.288C14.8941 748.549 14.6406 747.966 14.3645 747.227C18.4326 744.907 22.3147 742.472 26.3602 739.996C27.1321 739.478 27.8815 738.804 28.445 738.015C29.8311 735.886 31.3805 733.717 32.975 731.859C36.0007 728.185 37.6066 724.06 38.1644 719.715C38.7278 714.237 39.2687 708.602 40.8351 703.032C42.9705 695.54 45.9681 688.154 48.6162 680.694C50.1995 676.413 52.1772 672.519 55.6199 669.386C57.7046 667.405 60.7416 666.153 63.8574 667.793C67.717 669.892 68.4213 673.595 67.9593 677.431C66.545 689.916 61.243 701.28 53.0787 711.586C46.909 719.288 40.5533 726.875 34.0118 734.347C35.0598 734.567 35.6233 733.778 36.2543 733.457C45.0497 727.519 53.4506 721.195 61.8064 714.559C64.8265 712.019 68.4044 709.822 69.7059 705.936C69.9426 705.23 70.3426 704.482 70.7652 703.89C75.746 696.165 77.628 688.09 77.5547 679.376C77.4815 670.662 78.5971 661.972 83.1384 653.55C83.2342 653.04 83.6793 652.605 84.1244 652.169C85.0147 651.297 85.8824 650.27 86.9811 649.669C91.1675 646.996 95.5511 646.86 96.8752 652.51C97.6978 655.86 97.4949 659.145 96.6385 662.595C94.8017 670.982 90.497 678.698 86.1923 686.415C83.6286 690.942 80.7382 695.553 77.8928 700.475C80.9354 698.09 83.1384 695.756 85.3415 693.421C90.2378 688.628 94.7848 683.762 99.1233 678.624C101.163 676.331 103.738 674.226 104.476 671.129C107.693 657.057 112.635 643.197 119.345 629.861C124.123 620.732 129.273 611.832 137.004 604.384C138.339 603.077 139.933 601.219 142.029 601.661C144.289 602.061 144.092 604.213 144.526 606.044C144.593 606.512 144.661 606.98 144.565 607.489C144.452 616.088 141.939 624.484 139.077 632.807C137.657 637.046 135.68 640.941 133.167 644.647C128.727 651.427 123.126 657.206 117.525 662.986C113.238 667.302 108.138 670.69 104.431 675.507C101.45 679.493 98.0753 683.093 94.7228 686.85C88.7222 693.377 82.3496 699.674 75.746 705.544C70.6412 710.066 65.5139 714.432 60.2006 718.684C58.8202 719.679 57.6257 720.789 56.2678 721.94C60.4711 720.556 64.4208 718.589 68.1846 716.508C82.2594 708.429 94.6214 697.872 107.028 687.626C112.319 683.219 117.61 678.812 124.056 676.539C126.625 675.567 129.707 674.628 131.679 676.556C133.465 678.369 132.355 681.237 131.178 683.636C129.882 686.389 127.701 688.879 125.453 690.902C115.474 700.373 103.648 706.429 91.1055 711.049C81.296 714.655 71.1202 716.899 61.6318 721.557C57.051 723.844 52.0532 725.59 47.7035 728.305C43.0494 731.258 38.6264 734.638 34.1583 737.705C31.234 739.737 28.2872 741.612 25.0587 743.882C27.3857 744.75 29.6451 745.151 31.9834 743.752C33.5497 742.872 35.257 741.794 36.8459 741.07C46.6611 736.33 56.4312 731.278 66.1788 726.069C72.4668 722.704 78.8394 721.097 85.3866 721.87C88.6714 722.335 90.666 724.42 90.5815 727.352C90.5928 729.774 89.5786 732.132 87.8432 734.187C84.0681 738.536 79.0929 740.438 73.8867 741.913C66.8606 743.685 59.8175 744.169 52.9604 744.767Z" fill="#F8C0C8"/>
<path d="M-30.3835 712.142C-30.1807 713.546 -29.1834 714.588 -28.3495 715.671C-27.5888 717.42 -26.6874 718.971 -25.459 720.44C-25.4872 721.418 -24.8618 722.23 -24.2589 722.887C-22.1573 726.884 -19.7514 730.643 -17.3229 734.559C-15.9819 736.808 -14.3367 738.818 -14.5395 742.104C-14.6128 742.769 -14.5452 743.237 -14.6184 743.902C-13.8014 743.696 -13.1478 743.531 -12.3083 743.481C-12.0998 739.062 -12.0322 734.841 -11.6603 730.381C-11.6321 729.404 -11.3955 728.697 -10.8546 727.752C-9.65447 725.509 -8.45432 723.265 -7.44012 720.907C-5.53005 716.544 -2.62267 713.224 1.37777 710.436C6.31354 707.088 11.2493 703.741 15.5822 699.737C21.5321 694.031 26.9243 687.981 32.5024 682.046C35.5731 678.684 38.2495 674.936 39.4834 670.582C40.1258 667.995 39.8609 664.989 36.7451 663.349C32.7446 661.448 28.8907 662.905 25.4988 665.216C14.5736 672.824 6.71355 682.893 1.12983 694.651C-3.01711 703.459 -6.65132 712.299 -10.2405 721.452C-11.0067 720.837 -10.6292 719.933 -10.556 719.268C-9.62067 709.329 -7.98667 699.538 -6.18929 689.705C-5.51879 686.14 -5.24268 682.19 -2.14937 678.984C-1.56339 678.351 -1.14081 677.759 -0.740765 677.011C4.05414 669.171 10.4943 663.342 18.8388 658.973C26.9975 654.489 34.6942 649.151 40.1426 641.147C40.5878 640.711 40.6836 640.202 40.9427 639.651C41.2752 638.435 41.7935 637.334 41.7992 636.201C42.126 631.429 39.9511 628.097 33.9504 629.934C30.4007 631.153 27.2905 633.069 24.5747 635.372C17.6219 641.169 12.5959 648.582 7.71087 655.797C4.79786 660.251 2.04827 664.664 -1.12392 669.669C-0.453421 666.104 0.634015 663.081 1.55806 660.098C3.54702 653.937 5.69937 647.734 8.2236 641.761C9.35612 639.049 9.90831 635.838 12.4832 633.733C24.0958 623.849 34.5251 612.809 43.4444 600.695C49.6648 592.172 55.1866 583.502 58.1728 573.693C58.7644 571.927 59.6378 569.766 58.0827 568.379C56.5051 566.837 54.4935 568.153 52.7187 568.762C52.2285 568.886 51.7609 569.166 51.2932 569.445C43.3205 574.044 36.7845 580.383 30.4345 586.836C27.1778 590.083 24.6423 593.634 22.3379 597.611C18.4332 604.579 15.7625 611.883 13.2777 619.302C11.5479 624.913 11.007 630.548 8.25177 636.094C6.1783 640.498 4.29077 645.017 2.73003 649.453C-0.177333 657.464 -2.71284 665.704 -4.899 674.017C-6.53862 680.253 -7.99231 686.603 -9.11919 692.87C-9.40655 694.398 -9.83477 696.123 -10.1221 697.651C-11.0349 693.677 -11.2941 689.538 -11.2039 685.472C-10.849 670.344 -7.6035 655.295 -4.35807 640.245C-3.06779 633.937 -1.63664 627.431 -2.88749 621.116C-3.43403 618.505 -4.00315 615.738 -6.93869 615.346C-9.71083 614.914 -11.5645 617.322 -13.2774 619.533C-15.1086 622.097 -16.4045 624.85 -17.1651 627.791C-20.912 640.541 -20.3205 652.843 -18.2357 664.93C-16.5341 674.365 -13.3619 683.429 -12.6182 693.268C-12.2688 698.031 -11.4068 702.826 -11.7335 707.598C-12.1787 712.724 -12.9506 717.931 -13.5591 723.098C-13.9253 726.424 -14.1282 729.71 -14.6127 733.39C-16.6806 731.971 -18.2357 730.584 -18.1061 727.964C-18.0272 726.166 -18.0892 724.564 -18.1737 722.807C-18.9625 712.656 -19.2386 702.538 -19.3739 692.223C-19.4809 685.62 -21.3403 679.782 -25.3971 675.146C-27.4367 672.75 -30.5356 672.4 -33.3641 673.922C-35.7024 675.32 -37.297 677.178 -38.3112 679.536C-40.4354 684.762 -39.5733 689.557 -38.3619 694.426C-36.5983 700.773 -33.4092 706.437 -30.3835 712.142Z" fill="#F8C0C8"/>
<path d="M1675.96 2207.77C1674.51 2208.29 1672.95 2208.04 1671.6 2208.06C1669.62 2208.4 1667.61 2208.58 1665.72 2208.41C1664.79 2208.97 1663.76 2208.9 1662.88 2208.64C1658.03 2209.06 1653.13 2209.16 1648.42 2209.38C1645.55 2209.46 1642.82 2209.33 1639.88 2211.21C1639.25 2211.53 1638.78 2211.81 1638.17 2212.29C1637.89 2211.55 1637.64 2210.97 1637.36 2210.23C1641.43 2207.91 1645.31 2205.47 1649.36 2203C1650.13 2202.48 1650.88 2201.8 1651.44 2201.01C1652.83 2198.89 1654.38 2196.72 1655.98 2194.86C1659 2191.18 1660.61 2187.06 1661.16 2182.72C1661.73 2177.24 1662.27 2171.6 1663.84 2166.03C1665.97 2158.54 1668.97 2151.15 1671.62 2143.69C1673.2 2139.41 1675.18 2135.52 1678.62 2132.39C1680.7 2130.4 1683.74 2129.15 1686.86 2130.79C1690.72 2132.89 1691.42 2136.6 1690.96 2140.43C1689.55 2152.92 1684.24 2164.28 1676.08 2174.59C1669.91 2182.29 1663.55 2189.87 1657.01 2197.35C1658.06 2197.57 1658.62 2196.78 1659.25 2196.46C1668.05 2190.52 1676.45 2184.2 1684.81 2177.56C1687.83 2175.02 1691.4 2172.82 1692.71 2168.94C1692.94 2168.23 1693.34 2167.48 1693.77 2166.89C1698.75 2159.17 1700.63 2151.09 1700.55 2142.38C1700.48 2133.66 1701.6 2124.97 1706.14 2116.55C1706.23 2116.04 1706.68 2115.6 1707.12 2115.17C1708.01 2114.3 1708.88 2113.27 1709.98 2112.67C1714.17 2110 1718.55 2109.86 1719.88 2115.51C1720.7 2118.86 1720.49 2122.15 1719.64 2125.6C1717.8 2133.98 1713.5 2141.7 1709.19 2149.41C1706.63 2153.94 1703.74 2158.55 1700.89 2163.48C1703.94 2161.09 1706.14 2158.76 1708.34 2156.42C1713.24 2151.63 1717.78 2146.76 1722.12 2141.62C1724.16 2139.33 1726.74 2137.23 1727.48 2134.13C1730.69 2120.06 1735.63 2106.2 1742.35 2092.86C1747.12 2083.73 1752.27 2074.83 1760 2067.38C1761.34 2066.08 1762.93 2064.22 1765.03 2064.66C1767.29 2065.06 1767.09 2067.21 1767.53 2069.04C1767.59 2069.51 1767.66 2069.98 1767.56 2070.49C1767.45 2079.09 1764.94 2087.48 1762.08 2095.81C1760.66 2100.05 1758.68 2103.94 1756.17 2107.65C1751.73 2114.43 1746.13 2120.21 1740.53 2125.99C1736.24 2130.3 1731.14 2133.69 1727.43 2138.51C1724.45 2142.49 1721.08 2146.09 1717.72 2149.85C1711.72 2156.38 1705.35 2162.67 1698.75 2168.54C1693.64 2173.07 1688.51 2177.43 1683.2 2181.68C1681.82 2182.68 1680.63 2183.79 1679.27 2184.94C1683.47 2183.56 1687.42 2181.59 1691.18 2179.51C1705.26 2171.43 1717.62 2160.87 1730.03 2150.63C1735.32 2146.22 1740.61 2141.81 1747.06 2139.54C1749.62 2138.57 1752.71 2137.63 1754.68 2139.56C1756.47 2141.37 1755.36 2144.24 1754.18 2146.64C1752.88 2149.39 1750.7 2151.88 1748.45 2153.9C1738.47 2163.37 1726.65 2169.43 1714.11 2174.05C1704.3 2177.66 1694.12 2179.9 1684.63 2184.56C1680.05 2186.84 1675.05 2188.59 1670.7 2191.31C1666.05 2194.26 1661.63 2197.64 1657.16 2200.71C1654.23 2202.74 1651.29 2204.61 1648.06 2206.88C1650.39 2207.75 1652.65 2208.15 1654.98 2206.75C1656.55 2205.87 1658.26 2204.79 1659.85 2204.07C1669.66 2199.33 1679.43 2194.28 1689.18 2189.07C1695.47 2185.7 1701.84 2184.1 1708.39 2184.87C1711.67 2185.34 1713.67 2187.42 1713.58 2190.35C1713.59 2192.77 1712.58 2195.13 1710.84 2197.19C1707.07 2201.54 1702.09 2203.44 1696.89 2204.91C1689.86 2206.69 1682.82 2207.17 1675.96 2207.77Z" fill="#F8C0C8"/>
<path d="M1592.62 2175.14C1592.82 2176.55 1593.82 2177.59 1594.65 2178.67C1595.41 2180.42 1596.31 2181.97 1597.54 2183.44C1597.51 2184.42 1598.14 2185.23 1598.74 2185.89C1600.84 2189.88 1603.25 2193.64 1605.68 2197.56C1607.02 2199.81 1608.66 2201.82 1608.46 2205.1C1608.39 2205.77 1608.45 2206.24 1608.38 2206.9C1609.2 2206.7 1609.85 2206.53 1610.69 2206.48C1610.9 2202.06 1610.97 2197.84 1611.34 2193.38C1611.37 2192.4 1611.6 2191.7 1612.15 2190.75C1613.35 2188.51 1614.55 2186.27 1615.56 2183.91C1617.47 2179.54 1620.38 2176.22 1624.38 2173.44C1629.31 2170.09 1634.25 2166.74 1638.58 2162.74C1644.53 2157.03 1649.92 2150.98 1655.5 2145.05C1658.57 2141.68 1661.25 2137.94 1662.48 2133.58C1663.13 2130.99 1662.86 2127.99 1659.75 2126.35C1655.74 2124.45 1651.89 2125.91 1648.5 2128.22C1637.57 2135.82 1629.71 2145.89 1624.13 2157.65C1619.98 2166.46 1616.35 2175.3 1612.76 2184.45C1611.99 2183.84 1612.37 2182.93 1612.44 2182.27C1613.38 2172.33 1615.01 2162.54 1616.81 2152.71C1617.48 2149.14 1617.76 2145.19 1620.85 2141.98C1621.44 2141.35 1621.86 2140.76 1622.26 2140.01C1627.05 2132.17 1633.49 2126.34 1641.84 2121.97C1650 2117.49 1657.69 2112.15 1663.14 2104.15C1663.59 2103.71 1663.68 2103.2 1663.94 2102.65C1664.28 2101.44 1664.79 2100.33 1664.8 2099.2C1665.13 2094.43 1662.95 2091.1 1656.95 2092.93C1653.4 2094.15 1650.29 2096.07 1647.57 2098.37C1640.62 2104.17 1635.6 2111.58 1630.71 2118.8C1627.8 2123.25 1625.05 2127.66 1621.88 2132.67C1622.55 2129.1 1623.63 2126.08 1624.56 2123.1C1626.55 2116.94 1628.7 2110.73 1631.22 2104.76C1632.36 2102.05 1632.91 2098.84 1635.48 2096.73C1647.1 2086.85 1657.53 2075.81 1666.44 2063.7C1672.66 2055.17 1678.19 2046.5 1681.17 2036.69C1681.76 2034.93 1682.64 2032.77 1681.08 2031.38C1679.51 2029.84 1677.49 2031.15 1675.72 2031.76C1675.23 2031.89 1674.76 2032.17 1674.29 2032.45C1666.32 2037.04 1659.78 2043.38 1653.43 2049.84C1650.18 2053.08 1647.64 2056.63 1645.34 2060.61C1641.43 2067.58 1638.76 2074.88 1636.28 2082.3C1634.55 2087.91 1634.01 2093.55 1631.25 2099.09C1629.18 2103.5 1627.29 2108.02 1625.73 2112.45C1622.82 2120.46 1620.29 2128.7 1618.1 2137.02C1616.46 2143.25 1615.01 2149.6 1613.88 2155.87C1613.59 2157.4 1613.17 2159.12 1612.88 2160.65C1611.97 2156.68 1611.71 2152.54 1611.8 2148.47C1612.15 2133.34 1615.4 2118.29 1618.64 2103.25C1619.93 2096.94 1621.36 2090.43 1620.11 2084.12C1619.57 2081.51 1619 2078.74 1616.06 2078.35C1613.29 2077.91 1611.44 2080.32 1609.72 2082.53C1607.89 2085.1 1606.6 2087.85 1605.83 2090.79C1602.09 2103.54 1602.68 2115.84 1604.76 2127.93C1606.47 2137.37 1609.64 2146.43 1610.38 2156.27C1610.73 2161.03 1611.59 2165.83 1611.27 2170.6C1610.82 2175.72 1610.05 2180.93 1609.44 2186.1C1609.07 2189.42 1608.87 2192.71 1608.39 2196.39C1606.32 2194.97 1604.76 2193.58 1604.89 2190.96C1604.97 2189.17 1604.91 2187.56 1604.83 2185.81C1604.04 2175.66 1603.76 2165.54 1603.63 2155.22C1603.52 2148.62 1601.66 2142.78 1597.6 2138.15C1595.56 2135.75 1592.46 2135.4 1589.64 2136.92C1587.3 2138.32 1585.7 2140.18 1584.69 2142.54C1582.56 2147.76 1583.43 2152.56 1584.64 2157.43C1586.4 2163.77 1589.59 2169.44 1592.62 2175.14Z" fill="#F8C0C8"/>
<path d="M1267.28 2632.05C669.412 2992.75 -352.7 3079.76 -1015.89 2717.55C-1631.86 2381.13 -1820.72 1694.42 -1407.08 1171.39C-1096.99 779.477 -703.604 -1.31789 -232.5 97.5001C151.39 202.626 -112.769 1044.58 363.958 1397.5C824.902 1738.37 1625.65 2035.03 1758.96 2313.5C1859.34 2523.43 1518.18 2480.3 1267.28 2632.05Z" fill="#ECE3F0"/>
</svg>
