<svg id="f69b9a6e-6107-4073-b2fb-507d432ccbb9" data-name="logo" xmlns="http://www.w3.org/2000/svg" viewBox="0 0 172.95 128.24"><path d="M225.06,388c3.4-.06-.12-6.44-1.26-10.46a71.84,71.84,0,0,0-4.58-11.72,27.07,27.07,0,0,0-4.63-6.63,34.36,34.36,0,0,0-4.16-3.74q-5.91-4.51-16.6-6.17,12.94-1.78,21-5.48c-2-19.25-13.51-37.24-40.75-37.24H156.16V369c0,5.54-.58,12.35.84,16.05,0-.29.62-2.73.62-3V350.91H173.7a10.25,10.25,0,0,1,7.37,2.53,17.44,17.44,0,0,1,4.16,6.59,74.82,74.82,0,0,1,2.65,8.88q1.13,4.39,2.6,8.73a31.17,31.17,0,0,0,4,7.93,17.58,17.58,0,0,0,5.34,5,14.31,14.31,0,0,0,1.37.79,23.89,23.89,0,0,0,10.92,2.16L223,392C219.41,391.27,224,388,225.06,388Zm-38.51-44.57q-7.28,5.18-20.89,5.18h-8V308.32h8q13.62,0,20.89,5.19t7.28,14.95Q193.83,338.21,186.55,343.41ZM128,306c2.33,1.59,8.81,7.34,9,11v64c0,2.65-10.87,6.45-12,8-.24.32-1.71-.12-2,.17.42-.24.82-.49,1.19-.75,5.89-4.17,6.63-11.82,6.63-17.56V327.57c0-5.39-.24-9.21-1-11.47a14,14,0,0,0-4.18-6.08,15.34,15.34,0,0,0-6.14-3.13" transform="translate(-69.05 -302.49)" fill="#fff"/><path d="M227.21,328.46q0,8.12-8.56,13.33a34.63,34.63,0,0,1-3.8,2c-2-19.25-13.51-37.24-40.75-37.24H156.16V369c0,5.54.07,10.21,1.49,13.91a9.72,9.72,0,0,0,1.68,5.4c1.13,1.54,7.78,2.95,9.67,3.74a61.67,61.67,0,0,0,9.5,2.5h-63c2.33-.36,1.93-1.94,3.79-2.74a10.85,10.85,0,0,0,3.74-2.59c.42-.24.82-.49,1.19-.75,5.89-4.17,6.63-11.82,6.63-17.56V327.57c0-5.39-.24-9.21-1-11.47a14,14,0,0,0-4.18-6.08,15.34,15.34,0,0,0-6.14-3.13c-1.65-.43-2.18-.16-4-.39l50.16-.5q29.68,0,45.62,5.64T227.21,328.46Z" transform="translate(-69.05 -302.49)" fill="#fff" stroke="#fff" stroke-miterlimit="10"/><path d="M164.66,307c19.79,0,35,4.88,45.62,8.64s15.93,6.37,15.93,13.82q0,8.12-8.56,13.33a34.63,34.63,0,0,1-3.8,2,64.32,64.32,0,0,1-.26,15.39,57.23,57.23,0,0,1-5.6,18.47,60.94,60.94,0,0,1-9.2,12.91c-17.57,19.12-48.34,31.38-77.79,29.51a41.19,41.19,0,0,1-6.88-.7c-8.84-1.39-17.69-3.65-25.55-7.65A38.62,38.62,0,0,1,78,405.59a34.07,34.07,0,0,1-7.62-9,56.23,56.23,0,0,0,6.15,10.08c2.7,3.3,6.14,5.74,9.83,8.34,7.61,5,16.71,8.52,26.29,10.78a130.9,130.9,0,0,0,29.24,3.48,115.6,115.6,0,0,0,44-8.17c24.57-9.74,43.74-27.3,51.35-48.85,5.16-15.65,5.41-34.77-8.11-48.5-12.53-12.52-32.43-18.78-52.33-18.78L118,304l-5.5,3.5m44.15,76.36a9.72,9.72,0,0,0,1.68,5.4,10.52,10.52,0,0,0,4.53,3.5c1.89.8-8.13-.12-5.86.24l-40,1c2.33-.36-.57-.44,1.29-1.24a10.85,10.85,0,0,0,3.74-2.59c-4.4,2.43-5.62,3.59-11,3.59l-1,1.74h69v-1.74C165,394,158.91,389.8,156.65,383.86Z" transform="translate(-69.05 -302.49)" fill="#fff" stroke="#fff" stroke-miterlimit="10" stroke-width="3"/><path d="M226.21,328.46q0,8.12-8.56,13.33c-.74.45-1.52.89-2.35,1.3a1.14,1.14,0,0,1-1.64-.88c-2.49-18.65-14.06-35.67-40.56-35.67H156.29a1.14,1.14,0,0,0-1.13,1.13V369c0,5.47.07,10.1,1.44,13.78a1.27,1.27,0,0,1,.06.28,9.63,9.63,0,0,0,1.67,5.25,10.52,10.52,0,0,0,4.53,3.5c1.89.8,3.87,2.88,6.14,3.24H111c2.33-.36,5.43-2.44,7.29-3.24a10.85,10.85,0,0,0,3.74-2.59c.42-.24.82-.49,1.19-.75,5.89-4.17,6.63-11.82,6.63-17.56V327.57c0-5.39-.24-9.21-1-11.47a14,14,0,0,0-4.18-6.08c-2-1.57-.48-2.5-2.69-3-1.33-.35,2.73-.67,4.72-.86l1.74-.14h36.2q29.68,0,45.62,5.64T226.21,328.46Z" transform="translate(-69.05 -302.49)" fill="#fff"/></svg>