<svg id="e1009a22-7aff-4449-b04b-8f7c1c47d0a9" data-name="logo" xmlns="http://www.w3.org/2000/svg" xmlns:xlink="http://www.w3.org/1999/xlink" viewBox="0 0 171.28 125.36"><defs><linearGradient id="b4549fab-7705-4522-85c1-3f49e3c8fd5c" x1="526.55" y1="284.75" x2="633.5" y2="284.75" gradientUnits="userSpaceOnUse"><stop offset="0.01" stop-color="#e6bed2"/><stop offset="0.11" stop-color="#e6bed2"/><stop offset="0.41" stop-color="#d3bbdd"/><stop offset="0.67" stop-color="#f8c0c8"/><stop offset="0.84" stop-color="#d3bbdd"/><stop offset="1" stop-color="#d3bbdd"/></linearGradient><linearGradient id="a2aa1694-0835-4525-9976-cbaf03059166" x1="520" x2="634.21" xlink:href="#b4549fab-7705-4522-85c1-3f49e3c8fd5c"/><linearGradient id="a22bb6f4-ff58-41b6-9d0d-1b00eb20375d" x1="477.05" y1="301.27" x2="650" y2="301.27" xlink:href="#b4549fab-7705-4522-85c1-3f49e3c8fd5c"/><linearGradient id="f8dbcdf2-cf44-47ff-bb92-7d0347a52f1c" x1="515.44" y1="324.43" x2="588.51" y2="324.43" xlink:href="#b4549fab-7705-4522-85c1-3f49e3c8fd5c"/><linearGradient id="b8decd38-cf04-4574-827b-775bef9cac62" x1="525.17" y1="283.45" x2="634.06" y2="283.45" xlink:href="#b4549fab-7705-4522-85c1-3f49e3c8fd5c"/><linearGradient id="be2004c7-9650-496e-8743-3f7411ded3c0" x1="518.78" y1="284.15" x2="634.71" y2="284.15" xlink:href="#b4549fab-7705-4522-85c1-3f49e3c8fd5c"/></defs><path d="M632.06,323c3.4-.06-.12-6.44-1.26-10.46a71.84,71.84,0,0,0-4.58-11.72,27.07,27.07,0,0,0-4.63-6.63,34.36,34.36,0,0,0-4.16-3.74q-5.91-4.51-16.6-6.17,12.95-1.78,21-5.48c-2-19.25-13.51-37.24-40.75-37.24H563.16V304c0,5.54.07,10.21,1.49,13.91,0-.29,0-.59,0-.89V285.91H580.7a10.25,10.25,0,0,1,7.37,2.53,17.44,17.44,0,0,1,4.16,6.59,74.82,74.82,0,0,1,2.65,8.88q1.13,4.39,2.6,8.73a31.17,31.17,0,0,0,4,7.93,17.58,17.58,0,0,0,5.34,5,14.31,14.31,0,0,0,1.37.79,23.89,23.89,0,0,0,10.92,2.16L630,327C626.41,326.27,631,323,632.06,323Zm-38.51-44.57q-7.27,5.18-20.89,5.18h-8V243.32h8q13.62,0,20.89,5.19t7.28,14.95Q600.83,273.21,593.55,278.41ZM535,241c2.33,1.59,8.81,7.34,9,11v64c0,2.65-10.87,6.45-12,8-.24.32-1.71-.12-2,.17.42-.24.82-.49,1.19-.75,5.89-4.17,6.63-11.82,6.63-17.56V262.57c0-5.39-.24-9.21-1-11.47a14,14,0,0,0-4.18-6.08,15.34,15.34,0,0,0-6.14-3.13" transform="translate(-477.29 -238.59)" fill="url(#b4549fab-7705-4522-85c1-3f49e3c8fd5c)"/><path d="M572.66,241q29.69,0,45.62,5.64t15.93,16.82q0,8.12-8.56,13.33a34.63,34.63,0,0,1-3.8,2c-2-19.25-13.51-37.24-40.75-37.24H563.16V304c0,5.54.07,10.21,1.49,13.91a9.72,9.72,0,0,0,1.68,5.4c1.13,1.54,7.78,2.95,9.67,3.74s-1.17,1.14,1.1,1.5H520a25.91,25.91,0,0,0,6.29-1.74,10.85,10.85,0,0,0,3.74-2.59c.42-.24.82-.49,1.19-.75,5.89-4.17,6.63-11.82,6.63-17.56V262.57c0-5.39-.24-9.21-1-11.47a14,14,0,0,0-4.18-6.08,15.34,15.34,0,0,0-6.14-3.13" transform="translate(-477.29 -238.59)" fill="url(#a2aa1694-0835-4525-9976-cbaf03059166)"/><path d="M637.12,257.71c-12.53-12.52-32.43-18.78-52.33-18.78H528.46l-4,1.57c1,0-3.19.85-2,1l50.16-.5c19.79,0,35,4.88,45.62,8.64s15.93,6.37,15.93,13.82q0,8.12-8.56,13.33a34.63,34.63,0,0,1-3.8,2,64.32,64.32,0,0,1-.26,15.39,57.23,57.23,0,0,1-5.6,18.47,60.94,60.94,0,0,1-9.2,12.91c-17.57,19.12-48.34,31.38-77.79,29.51a41.19,41.19,0,0,1-6.88-.7c-8.84-1.39-17.69-3.65-25.55-7.65A38.62,38.62,0,0,1,486,339.59a34.07,34.07,0,0,1-7.62-9,56.23,56.23,0,0,0,6.15,10.08c2.7,3.3,6.14,5.74,9.83,8.34,7.61,5,16.71,8.52,26.29,10.78a130.9,130.9,0,0,0,29.24,3.48,115.6,115.6,0,0,0,44-8.17c24.57-9.74,43.74-27.3,51.35-48.85C650.39,290.56,650.64,271.44,637.12,257.71Zm-72.47,60.15a9.72,9.72,0,0,0,1.68,5.4,10.52,10.52,0,0,0,4.53,3.5,26.68,26.68,0,0,0,6.24,1.74H520a25.91,25.91,0,0,0,6.29-1.74,10.85,10.85,0,0,0,3.74-2.59c-4.4,2.43-5.62,3.59-11,3.59l-1,1.74h69v-1.74C572.62,327.23,566.91,323.8,564.65,317.86Z" transform="translate(-477.29 -238.59)" fill="#d3bbdd"/><path d="M637.12,257.71c-6.73-6.67-15.24-11.3-24.17-14.27a88.87,88.87,0,0,0-27.83-4.37l-28.33.07-28.33.13.13,0-4,1.59-.14-.71h.19l.11,0,.1.07,0,0a.34.34,0,0,1,.07.16.38.38,0,0,1-.06.32l0,.05a.71.71,0,0,1-.13.09l-.07,0-.11,0-.37.13-.71.21-.68.23-.27.11,0,0a.34.34,0,0,0,0-.3.27.27,0,0,0-.1-.15.08.08,0,0,0,0,0c-.08,0,0,0,0,0h0l35.13-.58,8.78-.14c2.94,0,5.85-.14,8.8-.08a119.26,119.26,0,0,1,17.6,1.55,136.86,136.86,0,0,1,17.21,4c2.82.85,5.62,1.78,8.39,2.74a88.6,88.6,0,0,1,8.29,3.22,23.42,23.42,0,0,1,4,2.31,11.54,11.54,0,0,1,3.27,3.53,10.82,10.82,0,0,1,1.37,4.65,15,15,0,0,1-.36,4.72,15.61,15.61,0,0,1-4.87,8,29.39,29.39,0,0,1-7.71,4.91l.74-1.29a65.83,65.83,0,0,1-.61,18.22,56.33,56.33,0,0,1-5.81,17.34,64,64,0,0,1-11,14.54,84.88,84.88,0,0,1-14.19,11.39,103.23,103.23,0,0,1-33.4,13.91,105.83,105.83,0,0,1-18,2.49c-3,.14-6.06.14-9.09,0l-4.5-.26a26.56,26.56,0,0,1-4.67-.6l.1,0A111.45,111.45,0,0,1,509.18,353,73.31,73.31,0,0,1,497,348.36c-.95-.49-1.94-.9-2.94-1.44s-1.94-1.08-2.87-1.68a43.32,43.32,0,0,1-5.26-4c-.4-.36-.77-.71-1.19-1s-.84-.74-1.24-1.13a33,33,0,0,1-2.3-2.43,38.38,38.38,0,0,1-3.82-5.42l2.14-1.2c1.21,2.35,2.37,4.67,3.74,6.83a29,29,0,0,0,4.81,5.86,61.56,61.56,0,0,0,6.09,4.8,58.35,58.35,0,0,0,6.61,4c9.21,4.83,19.41,7.6,29.73,9.3a127.23,127.23,0,0,0,31.31,1.31,116,116,0,0,0,30.57-6.93A103.7,103.7,0,0,0,619.79,340a80.29,80.29,0,0,0,20.62-23.57,60.83,60.83,0,0,0,8-30.13,43.94,43.94,0,0,0-2.81-15.43A38.61,38.61,0,0,0,637.12,257.71Zm0,0a38.48,38.48,0,0,1,8.56,13.15,43.92,43.92,0,0,1,2.89,15.46,61,61,0,0,1-7.89,30.29,80.72,80.72,0,0,1-20.6,23.78A104.42,104.42,0,0,1,592.64,356a116.67,116.67,0,0,1-30.77,7.38,128.26,128.26,0,0,1-31.68-.92c-10.44-1.59-20.87-4.27-30.41-9.12a59.65,59.65,0,0,1-6.92-4.1,63.45,63.45,0,0,1-6.36-4.9,30.73,30.73,0,0,1-5.26-6.25c-1.49-2.27-2.72-4.65-3.95-7l2.14-1.2a36.41,36.41,0,0,0,3.64,5c.68.79,1.39,1.53,2.13,2.24.38.35.75.69,1.16,1s.82.72,1.22,1.07a41.81,41.81,0,0,0,5,3.77c.87.56,1.77,1.07,2.68,1.55s1.89.89,2.85,1.38c7.6,3.66,15.88,5.7,24.26,7h.1a24.61,24.61,0,0,0,4.21.51l4.46.23q4.41.17,8.83-.06a103.26,103.26,0,0,0,17.48-2.5,104.88,104.88,0,0,0,32.49-13.49,82.76,82.76,0,0,0,13.77-10.94,61.91,61.91,0,0,0,10.64-13.87,53.89,53.89,0,0,0,5.6-16.49,63.7,63.7,0,0,0,.68-17.49l-.1-.92.84-.38a27.84,27.84,0,0,0,7.1-4.4,13.27,13.27,0,0,0,4.25-6.72,13.1,13.1,0,0,0,.35-4,8.68,8.68,0,0,0-1-3.72c-1.25-2.25-3.69-3.78-6.22-5a83.78,83.78,0,0,0-8-3.24c-2.75-1-5.5-2-8.28-2.82a135,135,0,0,0-16.93-4.18,118.75,118.75,0,0,0-17.34-1.75c-2.9-.1-5.85,0-8.77,0l-8.78,0-35.14.12h0a.79.79,0,0,1-.33-.1l-.08-.06a.44.44,0,0,1-.12-.19.41.41,0,0,1,.07-.39.71.71,0,0,1,.18-.16,3.23,3.23,0,0,1,.41-.18c.25-.09.48-.16.72-.23l.71-.2.34-.11.06,0h0l0,0,0,0a.4.4,0,0,0-.06.3.37.37,0,0,0,.08.14l0,0,.07.06.07,0h0l-1.76-.08,1.62-.63,4-1.55.07,0h.06l28.33.13,28.33.07A89.19,89.19,0,0,1,613,243.31C621.93,246.33,630.43,251,637.12,257.71Z" transform="translate(-477.29 -238.59)" fill="url(#a22bb6f4-ff58-41b6-9d0d-1b00eb20375d)"/><path d="M564.65,317.86a10.69,10.69,0,0,0,1.19,4.28,9.61,9.61,0,0,0,3,3.16,14.73,14.73,0,0,0,4,1.75,27.87,27.87,0,0,0,4.34.9l-.09,1.1q-7.14.21-14.28.34t-14.27.24c-9.52.16-19,.21-28.55.3l-.22-2.84a26.24,26.24,0,0,0,5.09-1.32,12,12,0,0,0,2.25-1.08,8.66,8.66,0,0,0,1.84-1.52l1.78,2.28-2.56,1.45a21.91,21.91,0,0,1-2.83,1.39,14.45,14.45,0,0,1-3.19.79,28,28,0,0,1-3.13.18l1.3-.75-1,1.74L518,328l17.24.05,17.25.13q17.24.15,34.48.52l-.8.8,0-1.74.74.77c-2.18-.16-4.35-.34-6.52-.69a40.41,40.41,0,0,1-6.4-1.49,17.74,17.74,0,0,1-5.79-3.11A12.06,12.06,0,0,1,564.65,317.86Zm0,0a11.87,11.87,0,0,0,3.91,5,16.86,16.86,0,0,0,5.74,2.68,38.23,38.23,0,0,0,6.31,1.11c2.12.23,4.27.27,6.42.33l.72,0,0,.75,0,1.74,0,.78-.82,0q-17.25.36-34.48.52l-17.25.13L518,331h-2.59l1.29-2.25,1-1.74.43-.75H519a14.64,14.64,0,0,0,5.26-.74,48.15,48.15,0,0,0,5-2.63l7.86-4.24-6.08,6.52a12,12,0,0,1-2.44,2,15.81,15.81,0,0,1-2.77,1.31,27.73,27.73,0,0,1-5.67,1.43l-.22-2.84c9.52.09,19,.14,28.55.3q7.14.09,14.27.24t14.28.34l-.09,1.1a29.43,29.43,0,0,1-4.42-1.19,15.38,15.38,0,0,1-4.11-2.06,9.6,9.6,0,0,1-2.94-3.51A11,11,0,0,1,564.65,317.86Z" transform="translate(-477.29 -238.59)" fill="url(#f8dbcdf2-cf44-47ff-bb92-7d0347a52f1c)"/><path d="M634.06,322c.1-3.4-3.12-6.44-4.26-10.46a71.84,71.84,0,0,0-4.58-11.72,27.07,27.07,0,0,0-4.63-6.63,34.36,34.36,0,0,0-4.16-3.74q-5.91-4.51-16.6-6.17,12.95-1.78,21-5.48c-2-19.25-13.51-37.24-40.75-37.24H562.16V303c0,5.54.07,10.21,1.49,13.91,0-.29,0-.59,0-.89V284.91H579.7a10.25,10.25,0,0,1,7.37,2.53,17.44,17.44,0,0,1,4.16,6.59,74.82,74.82,0,0,1,2.65,8.88q1.13,4.39,2.6,8.73a31.17,31.17,0,0,0,4,7.93,17.58,17.58,0,0,0,5.34,5,14.31,14.31,0,0,0,1.37.79,23.89,23.89,0,0,0,10.92,2.16L632,326C628.41,325.27,634,324,634.06,322Zm-41.51-44.57q-7.27,5.18-20.89,5.18h-8V242.32h8q13.62,0,20.89,5.19t7.28,14.95Q599.83,272.21,592.55,277.41ZM535.87,250.1a14,14,0,0,0-4.18-6.08,15.34,15.34,0,0,0-6.14-3.13c-1.65-.43,2.7-.66.83-.89H527c3.47.49,4.67-1.58,7,0s8.81,7.34,9,11v64c0,2.65-10.87,6.45-12,8-.24.32-1.71-.12-2,.17.42-.24.82-.49,1.19-.75,5.89-4.17,6.63-11.82,6.63-17.56V261.57C536.85,256.18,536.61,252.36,535.87,250.1Z" transform="translate(-477.29 -238.59)" fill="url(#b8decd38-cf04-4574-827b-775bef9cac62)"/><path d="M633.21,262.46q0,8.12-8.56,13.33a34.63,34.63,0,0,1-3.8,2c-2-19.25-13.51-37.24-40.75-37.24H562.16V303c0,5.54.07,10.21,1.49,13.91a9.72,9.72,0,0,0,1.68,5.4,10.52,10.52,0,0,0,4.53,3.5,26.68,26.68,0,0,0,6.24,1.74H519a25.91,25.91,0,0,0,6.29-1.74,10.85,10.85,0,0,0,3.74-2.59c.42-.24.82-.49,1.19-.75,5.89-4.17,6.63-11.82,6.63-17.56V261.57c0-5.39-.24-9.21-1-11.47a14,14,0,0,0-4.18-6.08,15.34,15.34,0,0,0-6.14-3.13c-1.65-.43,10.32-.66,8.45-.89h37.66q29.69,0,45.62,5.64T633.21,262.46Z" transform="translate(-477.29 -238.59)" fill="#d3bbdd"/><path d="M633.21,262.46a13.76,13.76,0,0,1-1,5.11,14.22,14.22,0,0,1-2.8,4.39,26.36,26.36,0,0,1-8.58,5.86l0,0v-.06A48,48,0,0,0,615,259a34.79,34.79,0,0,0-14-13.57A44,44,0,0,0,582,241c-1.63-.08-3.29,0-4.94,0l-5,.05-9.92.09.58-.58.36,38.24.18,19.12c0,3.18,0,6.38.14,9.52a28.83,28.83,0,0,0,1.43,9l.07.19,0,.21a9.34,9.34,0,0,0,.92,3.82,8.25,8.25,0,0,0,2.57,2.83,10.1,10.1,0,0,0,1.73,1c.64.27,1.31.52,2,.74a26.59,26.59,0,0,0,4.17,1l-.22,2.76-28.55.08H519l-.22-2.92a25.66,25.66,0,0,0,5.09-1.29,13.33,13.33,0,0,0,2.25-1.06,9.32,9.32,0,0,0,1.85-1.51l.16-.18.18-.1a13.48,13.48,0,0,0,6.31-8.94,30,30,0,0,0,.82-5.87c.09-2,.06-4.09.08-6.16l.19-24.87.12-12.43c0-2.07,0-4.13,0-6.18a37,37,0,0,0-.54-6,11.68,11.68,0,0,0-2.54-5.14,12.93,12.93,0,0,0-2.08-2,17.2,17.2,0,0,0-2.49-1.59,13.39,13.39,0,0,0-2.75-1,1.23,1.23,0,0,1-.38-.14l-.15-.11a.9.9,0,0,1-.25-.45.82.82,0,0,1,.18-.63.61.61,0,0,1,.19-.17,1,1,0,0,1,.28-.12,2.88,2.88,0,0,1,.49-.09l.81-.09,1.57-.1,3.11-.14,1.54-.08.76-.05.35,0h0l-.05,0a.66.66,0,0,0-.23.17c-.3-.19,0,1.3.1,1,.21.12.16.07.19.09h-.06l.08-1.33,27.16.26,13.59.15c4.53.1,9.06.27,13.58.59s9,.8,13.5,1.52a95.12,95.12,0,0,1,13.25,3,38,38,0,0,1,12.13,6,17.08,17.08,0,0,1,4.41,5.12A14.12,14.12,0,0,1,633.21,262.46Zm0,0a14,14,0,0,0-1.62-6.52,17,17,0,0,0-4.41-5.09A37.69,37.69,0,0,0,615,245a86.85,86.85,0,0,0-13.24-2.9c-4.48-.66-9-1.09-13.5-1.36s-9-.4-13.56-.4l-13.58.11-27.16.26.08-1.33.13,0,.1,0c.06,0,0,0,.28.12.1-.33.42,1.18.11,1a.69.69,0,0,1-.28.19l-.14,0-.15,0-.43.05-.79.07-1.56.11-3.09.2-1.53.13c-.25,0-.5.05-.73.09a1.65,1.65,0,0,0-.27.05l.09-.05a.51.51,0,0,0,.16-.13.82.82,0,0,0,.16-.59.79.79,0,0,0-.23-.42l-.1-.07c-.13-.07-.08,0,0,0a14.06,14.06,0,0,1,3.07,1.1,14.84,14.84,0,0,1,8.19,9.79,38.41,38.41,0,0,1,.69,6.33c.09,2.1.1,4.19.12,6.25l.12,12.43.19,24.87c0,2.07.06,4.12,0,6.27a32.91,32.91,0,0,1-.82,6.43,18.6,18.6,0,0,1-2.61,6.15,15,15,0,0,1-5,4.64l.34-.28a11.72,11.72,0,0,1-2.44,2,15.08,15.08,0,0,1-2.75,1.33,28.39,28.39,0,0,1-5.68,1.46L519,326h28.55l28.55.08-.22,2.76a29.81,29.81,0,0,1-4.59-1.12c-.75-.25-1.48-.53-2.22-.86a12.88,12.88,0,0,1-2.19-1.25,10.83,10.83,0,0,1-3.36-3.83,12.15,12.15,0,0,1-1.16-4.89l.09.4a29.57,29.57,0,0,1-1.45-9.83c-.06-3.24,0-6.4,0-9.59l.18-19.12.36-38.24V240h.58l9.92.09,5,0c1.65,0,3.3,0,5,.13a44.92,44.92,0,0,1,19.19,4.83,35,35,0,0,1,13.94,13.85,49.26,49.26,0,0,1,5.75,18.87l-.06,0a26.15,26.15,0,0,0,8.6-5.81,14.19,14.19,0,0,0,2.8-4.37A13.49,13.49,0,0,0,633.21,262.46Z" transform="translate(-477.29 -238.59)" fill="url(#be2004c7-9650-496e-8743-3f7411ded3c0)"/></svg>